Coordinates
version=1
nRows=29
nColumns=24
inDegrees=yes

Units are S.I. units (second, meters, Newtons, ...)
Angles are in degrees.

endheader
time	pelvis_tilt	pelvis_list	pelvis_rotation	pelvis_tx	pelvis_ty	pelvis_tz	hip_flexion_r	hip_adduction_r	hip_rotation_r	knee_angle_r	ankle_angle_r	subtalar_angle_r	mtp_angle_r	hip_flexion_l	hip_adduction_l	hip_rotation_l	knee_angle_l	ankle_angle_l	subtalar_angle_l	mtp_angle_l	lumbar_extension	lumbar_bending	lumbar_rotation
      0.96716667	     -3.27875338	     -2.50750133	      1.72806532	     -0.15356150	      1.01458018	      0.33190854	     -8.77959476	      7.24769265	     -1.62377417	     -9.59677886	     13.48057308	     -4.53073763	     -1.23288001	     21.67819554	     -0.80149909	     -2.04559158	      5.25176198	      2.89217624	     -4.48091018	     -0.58094911	     -2.27426260	      0.09262711	      3.35979802
      0.97133333	     -3.26082601	     -2.41733905	      1.68313690	     -0.14788106	      1.01387715	      0.33157770	     -8.87268581	      7.12521859	     -1.59319289	    -10.15607065	     13.60346004	     -4.60481238	     -1.22426924	     21.66846171	     -0.64103642	     -1.76913774	      5.02723260	      2.91184193	     -4.40852872	     -0.52945671	     -2.28434337	     -0.03073404	      3.36243741
      0.97550000	     -3.23784927	     -2.31360424	      1.62521170	     -0.14218469	      1.01320556	      0.33122287	     -8.90774736	      6.96442503	     -1.71062761	    -10.86132065	     13.89230352	     -4.26828401	     -1.17357443	     21.65934900	     -0.46979210	     -1.51824942	      4.71796251	      2.91957453	     -4.36871246	     -0.25478415	     -2.29083616	     -0.17215844	      3.36064099
      0.97966667	     -3.22350000	     -2.18987597	      1.57853344	     -0.13645967	      1.01256199	      0.33085858	     -8.92707466	      6.79140588	     -1.76571529	    -11.57647059	     14.09199377	     -4.11236860	     -1.08331261	     21.67228387	     -0.27540425	     -1.27904746	      4.31876752	      2.87988002	     -4.37703132	      0.19758546	     -2.29112262	     -0.32286361	      3.34481603
      0.98383333	     -3.16121116	     -2.06406052	      1.54637467	     -0.13071968	      1.01201539	      0.33050400	     -9.00508680	      6.63560555	     -1.72205631	    -12.26422101	     14.12692351	     -4.25035666	     -1.06698514	     21.64479798	     -0.07980767	     -1.04796048	      3.84285936	      2.84120127	     -4.37613213	      0.26354517	     -2.34285750	     -0.49369700	      3.34350000
      0.98800000	     -3.11954595	     -1.92010572	      1.50913119	     -0.12495580	      1.01146193	      0.33010689	     -8.99150154	      6.43439072	     -1.84411796	    -13.10889220	     14.32343759	     -3.99243611	     -0.93418275	     21.63815731	      0.13689640	     -0.81218695	      3.32045405	      2.69773173	     -4.50341636	      0.69380492	     -2.36638542	     -0.68141644	      3.31314394
      0.99216667	     -3.02654377	     -1.76799915	      1.48340429	     -0.11917612	      1.01103623	      0.32972505	     -9.05062888	      6.25045354	     -1.81547893	    -13.89950982	     14.29578996	     -4.14615200	     -0.91181827	     21.59300954	      0.35896638	     -0.62795505	      2.71860384	      2.60594397	     -4.54016971	      0.76083613	     -2.45464085	     -0.87643859	      3.30960788
      0.99633333	     -2.96838461	     -1.59558384	      1.45267648	     -0.11336911	      1.01057477	      0.32930295	     -9.00097857	      6.01586366	     -1.95321151	    -14.85201109	     14.43005318	     -3.89723027	     -0.71675403	     21.57217836	      0.60431839	     -0.39373443	      2.11085641	      2.35946551	     -4.77317981	      1.22235317	     -2.49453253	     -1.10282437	      3.26498056
      1.00050000	     -2.83803608	     -1.43439776	      1.43463252	     -0.10755333	      1.01026373	      0.32890680	     -9.03839717	      5.81837186	     -1.98657817	    -15.76201692	     14.33862057	     -4.04258068	     -0.65122791	     21.49760501	      0.83215553	     -0.24686362	      1.42334300	      2.20582038	     -4.87205516	      1.36333522	     -2.59049317	     -1.35405611	      3.25190219
      1.00466667	     -2.67986464	     -1.25690944	      1.42432735	     -0.10171699	      1.01002396	      0.32844550	     -9.06792718	      5.58754728	     -2.10528694	    -16.74222169	     14.18629709	     -4.02785641	      1.22054574	     21.34547488	      1.08473795	      0.07631285	      0.82773015	      1.69056999	     -5.42253291	      4.71768850	     -2.77813409	     -1.55596330	      3.19857563
      1.00883333	     -2.63595110	     -1.08871612	      1.40334837	     -0.09591570	      1.00964498	      0.32796721	     -8.91217643	      5.35498851	     -2.23569036	    -17.85339232	     14.14212451	     -3.92599339	      1.31193836	     21.40170492	      1.32160605	      0.13534025	      0.01931870	      1.54102291	     -5.45457793	      4.79611410	     -2.78202644	     -1.77390749	      3.17107976
      1.01300000	     -2.49060789	     -0.89174130	      1.39066121	     -0.09006875	      1.00946387	      0.32746344	     -8.84813331	      5.08523499	     -2.42381982	    -18.99138767	     14.00589487	     -3.81945016	      1.48727985	     21.30410031	      1.58841425	      0.29161972	     -0.71271212	      1.24574505	     -5.72468683	      4.91707484	     -2.92276220	     -2.01973458	      3.12370311
      1.01716667	     -2.37173626	     -0.70629147	      1.38442711	     -0.08423568	      1.00927823	      0.32693720	     -8.72209187	      4.82470848	     -2.61331953	    -20.18148289	     13.78914127	     -3.75382224	      1.73102446	     21.24236345	      1.84487844	      0.46404616	     -1.46690557	      0.90435617	     -6.05878630	      5.05164157	     -3.02673277	     -2.25592838	      3.07177925
      1.02133333	     -2.22887675	     -0.50398820	      1.37996796	     -0.07839028	      1.00917368	      0.32638473	     -8.58997319	      4.53429788	     -2.84571894	    -21.42595072	     13.51105284	     -3.66403864	      2.04515340	     21.14840122	      2.11652369	      0.62264148	     -2.22039339	      0.55521767	     -6.39579253	      5.19012168	     -3.16159493	     -2.50937701	      3.01439971
      1.02550000	     -2.10544060	     -0.30459212	      1.37840670	     -0.07255028	      1.00907863	      0.32579008	     -8.39924773	      4.23403277	     -3.11208373	    -22.72943907	     13.15642815	     -3.56903775	      2.48935806	     21.07768604	      2.38688369	      0.78664215	     -2.98829973	      0.22237954	     -6.75942911	      5.34440759	     -3.26574639	     -2.74577583	      2.94610463
      1.02966667	     -1.91480676	     -0.10136464	      1.36748623	     -0.06669849	      1.00915323	      0.32522283	     -8.27447979	      3.93298574	     -3.33029782	    -24.00836840	     12.50947872	     -3.69419452	      5.60096371	     20.90453467	      2.65364884	      0.98888803	     -3.69876096	     -0.19675645	     -7.25559895	      6.15720601	     -3.46071162	     -3.00134596	      2.89391707
      1.03383333	     -1.80394111	      0.10329875	      1.37998828	     -0.06088128	      1.00910849	      0.32454406	     -7.99420422	      3.59277862	     -3.69799456	    -25.43665504	     12.07161102	     -3.49666626	      5.71655056	     20.87768623	      2.92400841	      1.01798480	     -4.54502763	     -0.35304666	     -7.31390407	      6.15869331	     -3.55033340	     -3.25006983	      2.83918026
      1.03800000	     -1.65069586	      0.32230671	      1.37962874	     -0.05505543	      1.00918821	      0.32385612	     -7.73659814	      3.22226889	     -4.06846876	    -26.88779281	     11.50002410	     -3.34572317	      5.96109560	     20.76803278	      3.20714303	      1.11092669	     -5.32074174	     -0.58565350	     -7.57888137	      6.14949998	     -3.69051100	     -3.49267636	      2.75013769
      1.04216667	     -1.51626973	      0.53833377	      1.39121196	     -0.04924957	      1.00929633	      0.32315797	     -7.43537825	      2.84970683	     -4.43718882	    -28.35971545	     10.82085528	     -3.23850481	      6.25601517	     20.67922971	      3.48708067	      1.21398117	     -6.10094339	     -0.82292937	     -7.81143592	      6.12407600	     -3.82411250	     -3.77064948	      2.67508483
      1.04633333	     -1.32043055	      0.76815545	      1.37580910	     -0.04342675	      1.00955043	      0.32245168	     -7.18276240	      2.44248108	     -4.79842046	    -29.82797795	      9.89550716	     -3.26721253	      9.65994011	     20.47834809	      3.77861488	      1.36670425	     -6.79683160	     -1.07096373	     -8.24053389	      5.72790440	     -4.02239885	     -4.02165702	      2.57199122
      1.05050000	     -1.15705014	      0.97468662	      1.39178500	     -0.03763706	      1.00977905	      0.32168123	     -6.86179999	      2.04279342	     -5.22389994	    -31.34846089	      9.00819741	     -3.18002409	      9.68326332	     20.35475391	      4.04302849	      1.39223505	     -7.58551475	     -1.08433224	     -8.28258535	      5.72276007	     -4.17271951	     -4.25936795	      2.55320445
      1.05466667	     -1.00351568	      1.21160970	      1.39660999	     -0.03184656	      1.01004203	      0.32089448	     -6.50534387	      1.59038086	     -5.64056309	    -32.89984800	      8.07278288	     -3.06668118	      9.74311816	     20.21964820	      4.33671967	      1.41809116	     -8.33627903	     -1.11880511	     -8.34728208	      5.70600909	     -4.32055205	     -4.51237190	      2.48679642
      1.05883333	     -0.90015476	      1.42139328	      1.41726927	     -0.02610987	      1.01024512	      0.32005980	     -6.05724467	      1.14343656	     -6.10454215	    -34.49709606	      7.11675754	     -2.92737458	     10.07593909	     20.14081278	      4.60814336	      1.45355054	     -9.08630237	     -1.13697162	     -8.44726598	      5.60859910	     -4.41738429	     -4.74388841	      2.27881728
      1.06300000	     -0.71884057	      1.62701271	      1.45002453	     -0.02036865	      1.01062682	      0.31919074	     -5.70394246	      0.69828637	     -6.54982388	    -36.02025629	      5.87550399	     -2.92921738	     13.43920183	     19.95142120	      4.87852559	      1.52318048	     -9.79803315	     -1.02074816	     -8.46118478	      4.52917894	     -4.61718598	     -4.94158103	      2.13460528
      1.06716667	     -0.56446785	      1.86101339	      1.43380745	     -0.01463829	      1.01100661	      0.31839471	     -5.28227390	      0.20331510	     -6.94315882	    -37.60394533	      4.72757337	     -2.89181505	     13.44300205	     19.75785353	      5.16056264	      1.52584838	    -10.43859745	     -0.97314084	     -8.55417141	      4.52468549	     -4.76303575	     -5.21014614	      2.13143299
      1.07133333	     -0.41851180	      2.07418491	      1.44859084	     -0.00894710	      1.01140285	      0.31754181	     -4.84272669	     -0.27460137	     -7.35115378	    -39.16435377	      3.49289904	     -2.94033056	     13.52127954	     19.56696747	      5.43094893	      1.55559176	    -11.06729357	     -0.87365050	     -8.60073407	      4.48035269	     -4.90941103	     -5.42604033	      2.02233523
      1.07550000	     -0.26988750	      2.29306041	      1.45847487	     -0.00326639	      1.01184291	      0.31668525	     -4.39012040	     -0.77652173	     -7.75709087	    -40.72598744	      2.26238459	     -2.90012882	     13.54771858	     19.33753608	      5.70758110	      1.59964393	    -11.62630206	     -0.73685259	     -8.63430422	      4.45641700	     -5.06235628	     -5.66070766	      1.96264222
      1.07966667	     -0.15406557	      2.48146495	      1.48376362	      0.00235386	      1.01225604	      0.31580287	     -3.89096709	     -1.24155062	     -8.13282556	    -42.25799953	      0.95521605	     -3.02813713	     13.65366933	     19.14660839	      5.95501135	      1.61828735	    -12.19036913	     -0.55624833	     -8.62398820	      4.36456361	     -5.18271366	     -5.84055730	      1.79744195
      1.08383333	     -0.01373017	      2.67744566	      1.50519352	      0.00795664	      1.01275188	      0.31493196	     -3.40925538	     -1.72386480	     -8.49635169	    -43.77045313	     -0.31653299	     -3.11207683	     13.76081164	     18.88925386	      6.20951608	      1.65090127	    -12.67449952	     -0.36134798	     -8.61102525	      4.24747500	     -5.33579199	     -6.03384692	      1.67327108
